<svg width="65" height="65" viewBox="0 0 65 65" fill="none" xmlns="http://www.w3.org/2000/svg">
<g id="material-symbols:search">
<path id="Vector" d="M53.0833 56.875L36.0208 39.8125C34.6667 40.8958 33.1094 41.7535 31.349 42.3854C29.5885 43.0174 27.7153 43.3333 25.7292 43.3333C20.809 43.3333 16.6454 41.6289 13.2383 38.22C9.83125 34.8111 8.12681 30.6475 8.125 25.7292C8.125 20.809 9.82944 16.6454 13.2383 13.2383C16.6472 9.83125 20.8108 8.12681 25.7292 8.125C30.6493 8.125 34.8129 9.82944 38.22 13.2383C41.6271 16.6472 43.3315 20.8108 43.3333 25.7292C43.3333 27.7153 43.0174 29.5885 42.3854 31.349C41.7535 33.1094 40.8958 34.6667 39.8125 36.0208L56.875 53.0833L53.0833 56.875ZM25.7292 37.9167C29.1146 37.9167 31.9926 36.7313 34.3633 34.3606C36.734 31.9899 37.9185 29.1128 37.9167 25.7292C37.9167 22.3438 36.7313 19.4657 34.3606 17.095C31.9899 14.7243 29.1128 13.5399 25.7292 13.5417C22.3438 13.5417 19.4657 14.727 17.095 17.0977C14.7243 19.4684 13.5399 22.3456 13.5417 25.7292C13.5417 29.1146 14.727 31.9926 17.0977 34.3633C19.4684 36.734 22.3456 37.9185 25.7292 37.9167Z" fill="white"/>
</g>
</svg>
