<svg width="45" height="45" viewBox="0 0 45 45" fill="none" xmlns="http://www.w3.org/2000/svg">
<g id="mdi:calendar">
<path id="Vector" d="M35.2358 37.277H9.21014V16.8283H35.2358M29.6589 3.81543V7.53338H14.7871V3.81543H11.0691V7.53338H9.21014C7.14667 7.53338 5.49219 9.18787 5.49219 11.2513V37.277C5.49219 38.263 5.8839 39.2087 6.58115 39.906C7.2784 40.6032 8.22407 40.9949 9.21014 40.9949H35.2358C36.2218 40.9949 37.1675 40.6032 37.8648 39.906C38.562 39.2087 38.9537 38.263 38.9537 37.277V11.2513C38.9537 10.2653 38.562 9.31959 37.8648 8.62234C37.1675 7.92509 36.2218 7.53338 35.2358 7.53338H33.3768V3.81543M31.5178 24.2641H22.223V33.559H31.5178V24.2641Z" fill="black"/>
</g>
</svg>
